<mxfile host="app.diagrams.net" modified="2023-07-17T08:13:49.216Z" agent="Mozilla/5.0 (X11; Ubuntu; Linux x86_64; rv:109.0) Gecko/20100101 Firefox/115.0" etag="-rLDYkQmKTOimcbtcNKd" version="21.5.2" type="device" pages="3">
  <diagram name="Page-1" id="iFXFSiyWRtx8bbsqPwS7">
    <mxGraphModel dx="2945" dy="2278" grid="1" gridSize="10" guides="1" tooltips="1" connect="1" arrows="1" fold="1" page="1" pageScale="1" pageWidth="850" pageHeight="1100" math="0" shadow="0">
      <root>
        <mxCell id="0" />
        <mxCell id="1" parent="0" />
        <mxCell id="aB_mUxWlKOgLJLLkVjGU-1" value="&lt;p style=&quot;margin:0px;margin-top:4px;text-align:center;&quot;&gt;&lt;i&gt;&amp;lt;&amp;lt;Interface&amp;gt;&amp;gt;&lt;/i&gt;&lt;/p&gt;&lt;p style=&quot;margin:0px;margin-top:4px;text-align:center;&quot;&gt;&lt;b&gt;ScriptCommand&lt;/b&gt;&lt;br&gt;&lt;/p&gt;&lt;hr size=&quot;1&quot;&gt;&lt;p style=&quot;margin:0px;margin-left:4px;&quot;&gt;+ execute(context : ScriptContext) : void&lt;br&gt;&lt;/p&gt;" style="verticalAlign=top;align=left;overflow=fill;fontSize=12;fontFamily=Helvetica;html=1;whiteSpace=wrap;" parent="1" vertex="1">
          <mxGeometry x="360" y="200" width="240" height="80" as="geometry" />
        </mxCell>
        <mxCell id="aB_mUxWlKOgLJLLkVjGU-3" style="edgeStyle=orthogonalEdgeStyle;rounded=0;orthogonalLoop=1;jettySize=auto;html=1;entryX=0.5;entryY=1;entryDx=0;entryDy=0;dashed=1;endArrow=block;endFill=0;exitX=0.5;exitY=0;exitDx=0;exitDy=0;" parent="1" source="aB_mUxWlKOgLJLLkVjGU-4" target="aB_mUxWlKOgLJLLkVjGU-1" edge="1">
          <mxGeometry relative="1" as="geometry">
            <mxPoint x="265" y="339.9999999999999" as="sourcePoint" />
            <Array as="points">
              <mxPoint x="230" y="360" />
              <mxPoint x="480" y="360" />
            </Array>
          </mxGeometry>
        </mxCell>
        <mxCell id="aB_mUxWlKOgLJLLkVjGU-4" value="&lt;p style=&quot;margin:0px;margin-top:4px;text-align:center;&quot;&gt;&lt;b&gt;FileCommand&lt;/b&gt;&lt;/p&gt;&lt;hr size=&quot;1&quot;&gt;&lt;p style=&quot;margin:0px;margin-left:4px;&quot;&gt;- file : File&lt;br&gt;&lt;/p&gt;&lt;hr size=&quot;1&quot;&gt;&lt;p style=&quot;margin:0px;margin-left:4px;&quot;&gt;+ FileCommand(file : File)&lt;br&gt;&lt;/p&gt;&lt;p style=&quot;margin:0px;margin-left:4px;&quot;&gt;+ execute(context : ScriptContext) : void&lt;/p&gt;&lt;p style=&quot;margin:0px;margin-left:4px;&quot;&gt;+ getFile() : File&lt;br&gt;&lt;/p&gt;" style="verticalAlign=top;align=left;overflow=fill;fontSize=12;fontFamily=Helvetica;html=1;whiteSpace=wrap;" parent="1" vertex="1">
          <mxGeometry x="120" y="440" width="220" height="110" as="geometry" />
        </mxCell>
        <mxCell id="aB_mUxWlKOgLJLLkVjGU-6" style="edgeStyle=orthogonalEdgeStyle;rounded=0;orthogonalLoop=1;jettySize=auto;html=1;entryX=0.5;entryY=0;entryDx=0;entryDy=0;endArrow=open;endFill=0;" parent="1" source="aB_mUxWlKOgLJLLkVjGU-5" target="aB_mUxWlKOgLJLLkVjGU-1" edge="1">
          <mxGeometry relative="1" as="geometry">
            <Array as="points">
              <mxPoint x="200" y="150" />
              <mxPoint x="480" y="150" />
            </Array>
          </mxGeometry>
        </mxCell>
        <mxCell id="aB_mUxWlKOgLJLLkVjGU-10" style="edgeStyle=orthogonalEdgeStyle;rounded=0;orthogonalLoop=1;jettySize=auto;html=1;entryX=0.5;entryY=0;entryDx=0;entryDy=0;exitX=0.5;exitY=1;exitDx=0;exitDy=0;endArrow=open;endFill=0;" parent="1" source="aB_mUxWlKOgLJLLkVjGU-5" target="aB_mUxWlKOgLJLLkVjGU-7" edge="1">
          <mxGeometry relative="1" as="geometry">
            <mxPoint x="-10.004482758620698" y="95.00000000000023" as="sourcePoint" />
            <mxPoint x="-199.97000000000023" y="200.00000000000023" as="targetPoint" />
            <Array as="points">
              <mxPoint x="50" y="50" />
              <mxPoint x="-80" y="50" />
              <mxPoint x="-80" y="150" />
              <mxPoint x="-300" y="150" />
            </Array>
          </mxGeometry>
        </mxCell>
        <mxCell id="aB_mUxWlKOgLJLLkVjGU-5" value="&lt;p style=&quot;margin:0px;margin-top:4px;text-align:center;&quot;&gt;&lt;i&gt;&amp;lt;&amp;lt;Singleton&amp;gt;&amp;gt;&lt;/i&gt;&lt;br&gt;&lt;/p&gt;&lt;p style=&quot;margin:0px;margin-top:4px;text-align:center;&quot;&gt;&lt;b&gt;ScriptParser&lt;/b&gt;&lt;/p&gt;&lt;hr size=&quot;1&quot;&gt;&amp;nbsp;- parserMap : Map&amp;lt;String, ScriptCommandParser&amp;gt;&lt;br&gt;&lt;hr size=&quot;1&quot;&gt;&lt;p style=&quot;margin:0px;margin-left:4px;&quot;&gt;+ ScriptParser()&lt;/p&gt;&lt;p style=&quot;margin:0px;margin-left:4px;&quot;&gt;+ registerParser(command : String, parser : ScriptCommandParser) : void&lt;br&gt;&lt;/p&gt;&lt;p style=&quot;margin:0px;margin-left:4px;&quot;&gt;+ findParserByString(command : String) : ScriptCommandParser&lt;br&gt;&lt;/p&gt;&lt;p style=&quot;margin:0px;margin-left:4px;&quot;&gt;+ parse(script : String) : List&amp;lt;ScriptCommand&amp;gt;&lt;/p&gt;" style="verticalAlign=top;align=left;overflow=fill;fontSize=12;fontFamily=Helvetica;html=1;whiteSpace=wrap;" parent="1" vertex="1">
          <mxGeometry x="-160" y="-40" width="420" height="160" as="geometry" />
        </mxCell>
        <mxCell id="aB_mUxWlKOgLJLLkVjGU-7" value="&lt;p style=&quot;margin:0px;margin-top:4px;text-align:center;&quot;&gt;&lt;i&gt;&amp;lt;&amp;lt;Interface&amp;gt;&amp;gt;&lt;/i&gt;&lt;/p&gt;&lt;p style=&quot;margin:0px;margin-top:4px;text-align:center;&quot;&gt;&lt;b&gt;ScriptCommandParser&lt;/b&gt;&lt;br&gt;&lt;/p&gt;&lt;hr size=&quot;1&quot;&gt;&lt;p style=&quot;margin:0px;margin-left:4px;&quot;&gt;+ parse(tokens : String[]) : ScriptCommand&lt;br&gt;&lt;/p&gt;&lt;div&gt;&amp;nbsp;+ usage() : String&lt;/div&gt;&lt;div&gt;&amp;nbsp;+ command() : String&lt;br&gt;&lt;/div&gt;" style="verticalAlign=top;align=left;overflow=fill;fontSize=12;fontFamily=Helvetica;html=1;whiteSpace=wrap;" parent="1" vertex="1">
          <mxGeometry x="-430" y="200" width="260" height="95" as="geometry" />
        </mxCell>
        <mxCell id="aB_mUxWlKOgLJLLkVjGU-9" style="edgeStyle=orthogonalEdgeStyle;rounded=0;orthogonalLoop=1;jettySize=auto;html=1;entryX=0.5;entryY=1;entryDx=0;entryDy=0;dashed=1;endArrow=block;endFill=0;" parent="1" source="aB_mUxWlKOgLJLLkVjGU-8" target="aB_mUxWlKOgLJLLkVjGU-7" edge="1">
          <mxGeometry relative="1" as="geometry">
            <Array as="points">
              <mxPoint x="-563" y="360" />
              <mxPoint x="-300" y="360" />
            </Array>
          </mxGeometry>
        </mxCell>
        <mxCell id="aB_mUxWlKOgLJLLkVjGU-8" value="&lt;p style=&quot;margin:0px;margin-top:4px;text-align:center;&quot;&gt;&lt;b&gt;FileCommandParser&lt;/b&gt;&lt;/p&gt;&lt;hr size=&quot;1&quot;&gt;&lt;hr size=&quot;1&quot;&gt;&lt;div&gt;&amp;nbsp;+ parse(tokens : String[]) : ScriptCommand&lt;/div&gt;&lt;div&gt;&amp;nbsp;+ usage() : String&lt;/div&gt;&lt;div&gt;&amp;nbsp;+ command() : String&lt;br&gt;&lt;/div&gt;" style="verticalAlign=top;align=left;overflow=fill;fontSize=12;fontFamily=Helvetica;html=1;whiteSpace=wrap;" parent="1" vertex="1">
          <mxGeometry x="-680" y="440" width="235" height="90" as="geometry" />
        </mxCell>
        <mxCell id="aB_mUxWlKOgLJLLkVjGU-12" value="Script Parsing" style="shape=umlFrame;whiteSpace=wrap;html=1;pointerEvents=0;" parent="1" vertex="1">
          <mxGeometry x="-690" y="-70" width="1590" height="820" as="geometry" />
        </mxCell>
        <mxCell id="aB_mUxWlKOgLJLLkVjGU-11" value="&lt;p style=&quot;margin:0px;margin-top:4px;text-align:center;&quot;&gt;&lt;b&gt;ScriptExecutor&lt;/b&gt;&lt;b&gt;&lt;br&gt;&lt;/b&gt;&lt;/p&gt;&lt;hr size=&quot;1&quot;&gt;&lt;hr size=&quot;1&quot;&gt;&lt;p style=&quot;margin:0px;margin-left:4px;&quot;&gt;+ execute(context : ScriptContext, commands : List&amp;lt;ScriptCommand&amp;gt;) : void&lt;br&gt;&lt;/p&gt;" style="verticalAlign=top;align=left;overflow=fill;fontSize=12;fontFamily=Helvetica;html=1;whiteSpace=wrap;" parent="1" vertex="1">
          <mxGeometry x="1050" width="410" height="80" as="geometry" />
        </mxCell>
        <mxCell id="aB_mUxWlKOgLJLLkVjGU-13" value="Script Execution" style="shape=umlFrame;whiteSpace=wrap;html=1;pointerEvents=0;" parent="1" vertex="1">
          <mxGeometry x="965" y="-50" width="1435" height="810" as="geometry" />
        </mxCell>
        <mxCell id="aB_mUxWlKOgLJLLkVjGU-14" value="Script Engine" style="shape=umlFrame;whiteSpace=wrap;html=1;pointerEvents=0;" parent="1" vertex="1">
          <mxGeometry x="-700" y="-120" width="3180" height="910" as="geometry" />
        </mxCell>
        <mxCell id="f8MBwvNu5ziZ2H-cx4t--1" value="&lt;p style=&quot;margin:0px;margin-top:4px;text-align:center;&quot;&gt;&lt;b&gt;ExitCommandParser&lt;/b&gt;&lt;/p&gt;&lt;hr size=&quot;1&quot;&gt;&lt;hr size=&quot;1&quot;&gt;&lt;div&gt;&amp;nbsp;+ parse(tokens : String[]) : ScriptCommand&lt;/div&gt;&lt;div&gt;&amp;nbsp;+ usage() : String&lt;/div&gt;&lt;div&gt;&amp;nbsp;+ command() : String&lt;br&gt;&lt;/div&gt;" style="verticalAlign=top;align=left;overflow=fill;fontSize=12;fontFamily=Helvetica;html=1;whiteSpace=wrap;" vertex="1" parent="1">
          <mxGeometry x="-417.5" y="440" width="235" height="90" as="geometry" />
        </mxCell>
        <mxCell id="f8MBwvNu5ziZ2H-cx4t--3" style="edgeStyle=orthogonalEdgeStyle;rounded=0;orthogonalLoop=1;jettySize=auto;html=1;entryX=0.5;entryY=1;entryDx=0;entryDy=0;dashed=1;endArrow=block;endFill=0;exitX=0.5;exitY=0;exitDx=0;exitDy=0;" edge="1" parent="1" source="f8MBwvNu5ziZ2H-cx4t--1" target="aB_mUxWlKOgLJLLkVjGU-7">
          <mxGeometry relative="1" as="geometry">
            <mxPoint x="-553" y="450" as="sourcePoint" />
            <mxPoint x="-290" y="315" as="targetPoint" />
            <Array as="points">
              <mxPoint x="-300" y="370" />
              <mxPoint x="-300" y="370" />
            </Array>
          </mxGeometry>
        </mxCell>
        <mxCell id="f8MBwvNu5ziZ2H-cx4t--4" value="&lt;p style=&quot;margin:0px;margin-top:4px;text-align:center;&quot;&gt;&lt;b&gt;ExitCommandParser&lt;/b&gt;&lt;/p&gt;&lt;hr size=&quot;1&quot;&gt;&lt;hr size=&quot;1&quot;&gt;&lt;div&gt;&amp;nbsp;+ parse(tokens : String[]) : ScriptCommand&lt;/div&gt;&lt;div&gt;&amp;nbsp;+ usage() : String&lt;/div&gt;&lt;div&gt;&amp;nbsp;+ command() : String&lt;br&gt;&lt;/div&gt;" style="verticalAlign=top;align=left;overflow=fill;fontSize=12;fontFamily=Helvetica;html=1;whiteSpace=wrap;" vertex="1" parent="1">
          <mxGeometry x="-160" y="440" width="235" height="90" as="geometry" />
        </mxCell>
        <mxCell id="f8MBwvNu5ziZ2H-cx4t--6" style="edgeStyle=orthogonalEdgeStyle;rounded=0;orthogonalLoop=1;jettySize=auto;html=1;entryX=0.5;entryY=1;entryDx=0;entryDy=0;dashed=1;endArrow=block;endFill=0;exitX=0.5;exitY=0;exitDx=0;exitDy=0;" edge="1" parent="1" source="f8MBwvNu5ziZ2H-cx4t--4" target="aB_mUxWlKOgLJLLkVjGU-7">
          <mxGeometry relative="1" as="geometry">
            <mxPoint x="-290" y="450" as="sourcePoint" />
            <mxPoint x="-290" y="315" as="targetPoint" />
            <Array as="points">
              <mxPoint x="-40" y="440" />
              <mxPoint x="-40" y="360" />
              <mxPoint x="-300" y="360" />
            </Array>
          </mxGeometry>
        </mxCell>
        <mxCell id="f8MBwvNu5ziZ2H-cx4t--8" style="edgeStyle=orthogonalEdgeStyle;rounded=0;orthogonalLoop=1;jettySize=auto;html=1;entryX=0.5;entryY=1;entryDx=0;entryDy=0;dashed=1;endArrow=block;endFill=0;" edge="1" parent="1" source="f8MBwvNu5ziZ2H-cx4t--7" target="aB_mUxWlKOgLJLLkVjGU-1">
          <mxGeometry relative="1" as="geometry">
            <Array as="points">
              <mxPoint x="730" y="360" />
              <mxPoint x="480" y="360" />
            </Array>
          </mxGeometry>
        </mxCell>
        <mxCell id="f8MBwvNu5ziZ2H-cx4t--7" value="&lt;p style=&quot;margin:0px;margin-top:4px;text-align:center;&quot;&gt;&lt;b&gt;ExitCommand&lt;/b&gt;&lt;/p&gt;&lt;hr size=&quot;1&quot;&gt;&lt;p style=&quot;margin:0px;margin-left:4px;&quot;&gt;+ execute(context : ScriptContext) : void&lt;/p&gt;" style="verticalAlign=top;align=left;overflow=fill;fontSize=12;fontFamily=Helvetica;html=1;whiteSpace=wrap;" vertex="1" parent="1">
          <mxGeometry x="620" y="440" width="220" height="50" as="geometry" />
        </mxCell>
        <mxCell id="f8MBwvNu5ziZ2H-cx4t--11" style="edgeStyle=orthogonalEdgeStyle;rounded=0;orthogonalLoop=1;jettySize=auto;html=1;entryX=0.5;entryY=1;entryDx=0;entryDy=0;dashed=1;endArrow=block;endFill=0;" edge="1" parent="1" source="f8MBwvNu5ziZ2H-cx4t--10" target="aB_mUxWlKOgLJLLkVjGU-1">
          <mxGeometry relative="1" as="geometry" />
        </mxCell>
        <mxCell id="f8MBwvNu5ziZ2H-cx4t--10" value="&lt;p style=&quot;margin:0px;margin-top:4px;text-align:center;&quot;&gt;&lt;b&gt;HelpCommand&lt;/b&gt;&lt;/p&gt;&lt;hr size=&quot;1&quot;&gt;&lt;p style=&quot;margin:0px;margin-left:4px;&quot;&gt;- command : String&lt;br&gt;&lt;/p&gt;&lt;hr size=&quot;1&quot;&gt;&lt;p style=&quot;margin:0px;margin-left:4px;&quot;&gt;+ HelpCommand(command : String)&lt;br&gt;&lt;/p&gt;&lt;p style=&quot;margin:0px;margin-left:4px;&quot;&gt;+ execute(context : ScriptContext) : void&lt;/p&gt;" style="verticalAlign=top;align=left;overflow=fill;fontSize=12;fontFamily=Helvetica;html=1;whiteSpace=wrap;" vertex="1" parent="1">
          <mxGeometry x="370" y="440" width="220" height="100" as="geometry" />
        </mxCell>
        <mxCell id="f8MBwvNu5ziZ2H-cx4t--16" value="&lt;p style=&quot;margin:0px;margin-top:4px;text-align:center;&quot;&gt;&lt;b&gt;ScriptContext&lt;/b&gt;&lt;br&gt;&lt;/p&gt;&lt;hr size=&quot;1&quot;&gt;&lt;p style=&quot;margin:0px;margin-left:4px;&quot;&gt;- config : TopperConfig&lt;/p&gt;&lt;p style=&quot;margin:0px;margin-left:4px;&quot;&gt;- state : CommandState&lt;/p&gt;&lt;p style=&quot;margin:0px;margin-left:4px;&quot;&gt;- io : IOManager&lt;/p&gt;&lt;p style=&quot;margin:0px;margin-left:4px;&quot;&gt;- parser : ScriptParser&lt;br&gt;&lt;/p&gt;&lt;hr size=&quot;1&quot;&gt;&lt;p style=&quot;margin:0px;margin-left:4px;&quot;&gt;+ ScriptContext(config : TopperConfig, io : IOManager, parser : ScriptParser)&lt;br&gt;+ changeState(newState : CommandState) : void&lt;/p&gt;&lt;p style=&quot;margin:0px;margin-left:4px;&quot;&gt;+ getCurrentState() : CommandState&lt;/p&gt;&lt;p style=&quot;margin:0px;margin-left:4px;&quot;&gt;+ isTerminationState() : boolean&lt;/p&gt;&lt;p style=&quot;margin:0px;margin-left:4px;&quot;&gt;+ getIO() : IOManager&lt;/p&gt;&lt;p style=&quot;margin:0px;margin-left:4px;&quot;&gt;+ getParser() : ScriptParser&lt;br&gt;&lt;/p&gt;" style="verticalAlign=top;align=left;overflow=fill;fontSize=12;fontFamily=Helvetica;html=1;whiteSpace=wrap;" vertex="1" parent="1">
          <mxGeometry x="1670" width="420" height="200" as="geometry" />
        </mxCell>
        <mxCell id="f8MBwvNu5ziZ2H-cx4t--17" value="&lt;p style=&quot;margin:0px;margin-top:4px;text-align:center;&quot;&gt;&lt;i&gt;&amp;lt;&amp;lt;abstract&amp;gt;&amp;gt;&lt;/i&gt;&lt;/p&gt;&lt;p style=&quot;margin:0px;margin-top:4px;text-align:center;&quot;&gt;&lt;b&gt;CommandState&lt;/b&gt;&lt;br&gt;&lt;/p&gt;&lt;hr size=&quot;1&quot;&gt;&lt;p style=&quot;margin:0px;margin-left:4px;&quot;&gt;- context : ScriptContext&lt;br&gt;&lt;/p&gt;&lt;hr size=&quot;1&quot;&gt;&lt;p style=&quot;margin:0px;margin-left:4px;&quot;&gt;+ CommandState(context : ScriptCommand)&lt;/p&gt;&lt;p style=&quot;margin:0px;margin-left:4px;&quot;&gt;+ execute(command : ScriptCommand) : void&lt;/p&gt;&lt;p style=&quot;margin:0px;margin-left:4px;&quot;&gt;+ getContext() : ScriptContext&lt;/p&gt;&lt;p style=&quot;margin:0px;margin-left:4px;&quot;&gt;+ &lt;i&gt;getAvailableCommands() : ImmutableList&amp;lt;Class&amp;lt;? extends ScriptCommand&amp;gt;&amp;gt;&lt;/i&gt;&lt;/p&gt;&lt;p style=&quot;margin:0px;margin-left:4px;&quot;&gt;+ &lt;i&gt;executeCommand(command : ScriptCommand) : void&lt;/i&gt;&lt;/p&gt;" style="verticalAlign=top;align=left;overflow=fill;fontSize=12;fontFamily=Helvetica;html=1;whiteSpace=wrap;" vertex="1" parent="1">
          <mxGeometry x="1427.5" y="285" width="470" height="155" as="geometry" />
        </mxCell>
        <mxCell id="f8MBwvNu5ziZ2H-cx4t--25" style="edgeStyle=orthogonalEdgeStyle;rounded=0;orthogonalLoop=1;jettySize=auto;html=1;entryX=0.5;entryY=1;entryDx=0;entryDy=0;endArrow=block;endFill=0;" edge="1" parent="1" source="f8MBwvNu5ziZ2H-cx4t--18" target="f8MBwvNu5ziZ2H-cx4t--17">
          <mxGeometry relative="1" as="geometry" />
        </mxCell>
        <mxCell id="f8MBwvNu5ziZ2H-cx4t--18" value="&lt;p style=&quot;margin:0px;margin-top:4px;text-align:center;&quot;&gt;&lt;b&gt;ExecutionState&lt;/b&gt;&lt;/p&gt;&lt;hr size=&quot;1&quot;&gt;&lt;p style=&quot;margin:0px;margin-left:4px;&quot;&gt;+ ExecutionState(context : ScriptContext)&lt;/p&gt;&lt;p style=&quot;margin:0px;margin-left:4px;&quot;&gt;+ getAvailableCommands() : ImmutableList&amp;lt;Class&amp;lt;? extends ScriptCommand&amp;gt;&amp;gt;&lt;/p&gt;&lt;p style=&quot;margin:0px;margin-left:4px;&quot;&gt;+ executeCommand(command : ScriptCommand) : void&lt;br&gt;&lt;/p&gt;" style="verticalAlign=top;align=left;overflow=fill;fontSize=12;fontFamily=Helvetica;html=1;whiteSpace=wrap;" vertex="1" parent="1">
          <mxGeometry x="1440" y="520" width="445" height="100" as="geometry" />
        </mxCell>
        <mxCell id="f8MBwvNu5ziZ2H-cx4t--22" style="edgeStyle=orthogonalEdgeStyle;rounded=0;orthogonalLoop=1;jettySize=auto;html=1;entryX=0.5;entryY=1;entryDx=0;entryDy=0;endArrow=block;endFill=0;" edge="1" parent="1" source="f8MBwvNu5ziZ2H-cx4t--19" target="f8MBwvNu5ziZ2H-cx4t--17">
          <mxGeometry relative="1" as="geometry">
            <Array as="points">
              <mxPoint x="1197" y="480" />
              <mxPoint x="1663" y="480" />
            </Array>
          </mxGeometry>
        </mxCell>
        <mxCell id="f8MBwvNu5ziZ2H-cx4t--19" value="&lt;p style=&quot;margin:0px;margin-top:4px;text-align:center;&quot;&gt;&lt;b&gt;SelectionState&lt;/b&gt;&lt;br&gt;&lt;/p&gt;&lt;hr size=&quot;1&quot;&gt;&lt;p style=&quot;margin:0px;margin-left:4px;&quot;&gt;+ SelectionState(context : ScriptContext&lt;/p&gt;&lt;p style=&quot;margin:0px;margin-left:4px;&quot;&gt;+ getAvailableCommands() : ImmutableList&amp;lt;Class&amp;lt;? extends ScriptCommand&amp;gt;&amp;gt;&lt;/p&gt;&amp;nbsp;+ executeCommand(command : ScriptCommand) : void&lt;p style=&quot;margin:0px;margin-left:4px;&quot;&gt;&lt;/p&gt;" style="verticalAlign=top;align=left;overflow=fill;fontSize=12;fontFamily=Helvetica;html=1;whiteSpace=wrap;" vertex="1" parent="1">
          <mxGeometry x="980" y="520" width="435" height="80" as="geometry" />
        </mxCell>
        <mxCell id="f8MBwvNu5ziZ2H-cx4t--26" style="edgeStyle=orthogonalEdgeStyle;rounded=0;orthogonalLoop=1;jettySize=auto;html=1;entryX=0.5;entryY=1;entryDx=0;entryDy=0;endArrow=block;endFill=0;" edge="1" parent="1" source="f8MBwvNu5ziZ2H-cx4t--21" target="f8MBwvNu5ziZ2H-cx4t--17">
          <mxGeometry relative="1" as="geometry">
            <Array as="points">
              <mxPoint x="2143" y="480" />
              <mxPoint x="1663" y="480" />
            </Array>
          </mxGeometry>
        </mxCell>
        <mxCell id="f8MBwvNu5ziZ2H-cx4t--21" value="&lt;p style=&quot;margin:0px;margin-top:4px;text-align:center;&quot;&gt;&lt;b&gt;TerminationState&lt;/b&gt;&lt;br&gt;&lt;/p&gt;&lt;hr size=&quot;1&quot;&gt;&lt;p style=&quot;margin:0px;margin-left:4px;&quot;&gt;+ ExecutionState(context : ScriptContext)&lt;/p&gt;&lt;p style=&quot;margin:0px;margin-left:4px;&quot;&gt;+ getAvailableCommands() : ImmutableList&amp;lt;Class&amp;lt;? extends ScriptCommand&amp;gt;&amp;gt;&lt;/p&gt;&lt;p style=&quot;margin:0px;margin-left:4px;&quot;&gt;+ executeCommand(command : ScriptCommand) : void&lt;br&gt;&lt;/p&gt;" style="verticalAlign=top;align=left;overflow=fill;fontSize=12;fontFamily=Helvetica;html=1;whiteSpace=wrap;" vertex="1" parent="1">
          <mxGeometry x="1920" y="520" width="445" height="100" as="geometry" />
        </mxCell>
      </root>
    </mxGraphModel>
  </diagram>
  <diagram id="ufqz1seRzktyFd99z9l4" name="Page-2">
    <mxGraphModel dx="1135" dy="638" grid="1" gridSize="10" guides="1" tooltips="1" connect="1" arrows="1" fold="1" page="1" pageScale="1" pageWidth="850" pageHeight="1100" math="0" shadow="0">
      <root>
        <mxCell id="0" />
        <mxCell id="1" parent="0" />
        <mxCell id="ZVw4Goct18IYiEfNSNrP-19" style="edgeStyle=orthogonalEdgeStyle;rounded=0;orthogonalLoop=1;jettySize=auto;html=1;entryX=0;entryY=0.5;entryDx=0;entryDy=0;endArrow=open;endFill=0;startArrow=open;startFill=0;exitX=1;exitY=0.5;exitDx=0;exitDy=0;" parent="1" source="k1PwsRZrjSJeXuvPs9rs-3" target="k1PwsRZrjSJeXuvPs9rs-1" edge="1">
          <mxGeometry relative="1" as="geometry">
            <mxPoint x="395" y="270" as="targetPoint" />
            <mxPoint x="290" y="270" as="sourcePoint" />
          </mxGeometry>
        </mxCell>
        <mxCell id="k1PwsRZrjSJeXuvPs9rs-4" value="1" style="edgeLabel;html=1;align=center;verticalAlign=middle;resizable=0;points=[];" vertex="1" connectable="0" parent="ZVw4Goct18IYiEfNSNrP-19">
          <mxGeometry x="0.7568" y="-3" relative="1" as="geometry">
            <mxPoint x="-2" y="-8" as="offset" />
          </mxGeometry>
        </mxCell>
        <mxCell id="k1PwsRZrjSJeXuvPs9rs-5" value="1" style="edgeLabel;html=1;align=center;verticalAlign=middle;resizable=0;points=[];" vertex="1" connectable="0" parent="ZVw4Goct18IYiEfNSNrP-19">
          <mxGeometry x="-0.8288" y="1" relative="1" as="geometry">
            <mxPoint y="-4" as="offset" />
          </mxGeometry>
        </mxCell>
        <mxCell id="ZVw4Goct18IYiEfNSNrP-4" style="edgeStyle=orthogonalEdgeStyle;rounded=0;orthogonalLoop=1;jettySize=auto;html=1;entryX=0.5;entryY=1;entryDx=0;entryDy=0;endArrow=block;endFill=0;" parent="1" source="ZVw4Goct18IYiEfNSNrP-3" target="k1PwsRZrjSJeXuvPs9rs-1" edge="1">
          <mxGeometry relative="1" as="geometry">
            <mxPoint x="560" y="320" as="targetPoint" />
            <Array as="points">
              <mxPoint x="255" y="400" />
              <mxPoint x="560" y="400" />
            </Array>
          </mxGeometry>
        </mxCell>
        <mxCell id="ZVw4Goct18IYiEfNSNrP-3" value="&lt;p style=&quot;margin:0px;margin-top:4px;text-align:center;&quot;&gt;&lt;b&gt;SelectionState&lt;/b&gt;&lt;br&gt;&lt;/p&gt;&lt;hr size=&quot;1&quot;&gt;&lt;hr size=&quot;1&quot;&gt;&lt;p style=&quot;margin:0px;margin-left:4px;&quot;&gt;+ executeCommand(command : ScriptCommand) : void&lt;br&gt;&lt;/p&gt;" style="verticalAlign=top;align=left;overflow=fill;fontSize=12;fontFamily=Helvetica;html=1;whiteSpace=wrap;" parent="1" vertex="1">
          <mxGeometry x="80" y="460" width="310" height="60" as="geometry" />
        </mxCell>
        <mxCell id="ZVw4Goct18IYiEfNSNrP-8" style="edgeStyle=orthogonalEdgeStyle;rounded=0;orthogonalLoop=1;jettySize=auto;html=1;entryX=0;entryY=0.5;entryDx=0;entryDy=0;" parent="1" source="ZVw4Goct18IYiEfNSNrP-5" target="ZVw4Goct18IYiEfNSNrP-6" edge="1">
          <mxGeometry relative="1" as="geometry" />
        </mxCell>
        <mxCell id="ZVw4Goct18IYiEfNSNrP-9" value="file" style="edgeLabel;html=1;align=center;verticalAlign=middle;resizable=0;points=[];fontSize=14;" parent="ZVw4Goct18IYiEfNSNrP-8" vertex="1" connectable="0">
          <mxGeometry x="-0.68" y="1" relative="1" as="geometry">
            <mxPoint x="27" y="-9" as="offset" />
          </mxGeometry>
        </mxCell>
        <mxCell id="ZVw4Goct18IYiEfNSNrP-5" value="Selection" style="ellipse;whiteSpace=wrap;html=1;fontSize=16;fillColor=#d5e8d4;strokeColor=#82b366;" parent="1" vertex="1">
          <mxGeometry x="80" y="640" width="120" height="80" as="geometry" />
        </mxCell>
        <mxCell id="ZVw4Goct18IYiEfNSNrP-12" style="edgeStyle=orthogonalEdgeStyle;rounded=0;orthogonalLoop=1;jettySize=auto;html=1;entryX=0;entryY=0.5;entryDx=0;entryDy=0;" parent="1" source="ZVw4Goct18IYiEfNSNrP-6" target="ZVw4Goct18IYiEfNSNrP-7" edge="1">
          <mxGeometry relative="1" as="geometry" />
        </mxCell>
        <mxCell id="ZVw4Goct18IYiEfNSNrP-13" value="exit" style="edgeLabel;html=1;align=center;verticalAlign=middle;resizable=0;points=[];fontSize=14;" parent="ZVw4Goct18IYiEfNSNrP-12" vertex="1" connectable="0">
          <mxGeometry x="-0.7464" y="-1" relative="1" as="geometry">
            <mxPoint x="30" y="-11" as="offset" />
          </mxGeometry>
        </mxCell>
        <mxCell id="ZVw4Goct18IYiEfNSNrP-6" value="Execution" style="ellipse;whiteSpace=wrap;html=1;fontSize=16;fillColor=#dae8fc;strokeColor=#6c8ebf;" parent="1" vertex="1">
          <mxGeometry x="280" y="640" width="120" height="80" as="geometry" />
        </mxCell>
        <mxCell id="ZVw4Goct18IYiEfNSNrP-7" value="Termination" style="ellipse;whiteSpace=wrap;html=1;fontSize=16;fillColor=#f8cecc;strokeColor=#b85450;" parent="1" vertex="1">
          <mxGeometry x="480" y="640" width="120" height="80" as="geometry" />
        </mxCell>
        <mxCell id="ZVw4Goct18IYiEfNSNrP-10" style="edgeStyle=orthogonalEdgeStyle;rounded=0;orthogonalLoop=1;jettySize=auto;html=1;entryX=1;entryY=0;entryDx=0;entryDy=0;" parent="1" source="ZVw4Goct18IYiEfNSNrP-6" target="ZVw4Goct18IYiEfNSNrP-6" edge="1">
          <mxGeometry relative="1" as="geometry">
            <Array as="points">
              <mxPoint x="340" y="620" />
              <mxPoint x="382" y="620" />
              <mxPoint x="382" y="640" />
              <mxPoint x="382" y="640" />
            </Array>
          </mxGeometry>
        </mxCell>
        <mxCell id="ZVw4Goct18IYiEfNSNrP-11" value="&lt;div style=&quot;font-size: 14px;&quot;&gt;search,&lt;/div&gt;&lt;div style=&quot;font-size: 14px;&quot;&gt;semantic,&lt;/div&gt;&lt;div style=&quot;font-size: 14px;&quot;&gt;file&lt;br style=&quot;font-size: 14px;&quot;&gt;&lt;/div&gt;" style="edgeLabel;html=1;align=center;verticalAlign=middle;resizable=0;points=[];fontSize=14;" parent="ZVw4Goct18IYiEfNSNrP-10" vertex="1" connectable="0">
          <mxGeometry x="-0.3965" y="1" relative="1" as="geometry">
            <mxPoint x="12" y="-29" as="offset" />
          </mxGeometry>
        </mxCell>
        <mxCell id="ZVw4Goct18IYiEfNSNrP-15" style="edgeStyle=orthogonalEdgeStyle;rounded=0;orthogonalLoop=1;jettySize=auto;html=1;entryX=0.5;entryY=1;entryDx=0;entryDy=0;endArrow=block;endFill=0;" parent="1" source="ZVw4Goct18IYiEfNSNrP-14" target="k1PwsRZrjSJeXuvPs9rs-1" edge="1">
          <mxGeometry relative="1" as="geometry">
            <mxPoint x="560" y="320" as="targetPoint" />
          </mxGeometry>
        </mxCell>
        <mxCell id="ZVw4Goct18IYiEfNSNrP-14" value="&lt;p style=&quot;margin:0px;margin-top:4px;text-align:center;&quot;&gt;&lt;b&gt;ExecutionState&lt;/b&gt;&lt;br&gt;&lt;/p&gt;&lt;hr size=&quot;1&quot;&gt;&lt;hr size=&quot;1&quot;&gt;&lt;p style=&quot;margin:0px;margin-left:4px;&quot;&gt;+ executeCommand(command : ScriptCommand) : void&lt;br&gt;&lt;/p&gt;" style="verticalAlign=top;align=left;overflow=fill;fontSize=12;fontFamily=Helvetica;html=1;whiteSpace=wrap;" parent="1" vertex="1">
          <mxGeometry x="402.5" y="460" width="315" height="60" as="geometry" />
        </mxCell>
        <mxCell id="ZVw4Goct18IYiEfNSNrP-18" style="edgeStyle=orthogonalEdgeStyle;rounded=0;orthogonalLoop=1;jettySize=auto;html=1;entryX=0.5;entryY=1;entryDx=0;entryDy=0;endArrow=block;endFill=0;" parent="1" source="ZVw4Goct18IYiEfNSNrP-16" target="k1PwsRZrjSJeXuvPs9rs-1" edge="1">
          <mxGeometry relative="1" as="geometry">
            <mxPoint x="560" y="320" as="targetPoint" />
            <Array as="points">
              <mxPoint x="860" y="400" />
              <mxPoint x="560" y="400" />
            </Array>
          </mxGeometry>
        </mxCell>
        <mxCell id="ZVw4Goct18IYiEfNSNrP-16" value="&lt;p style=&quot;margin:0px;margin-top:4px;text-align:center;&quot;&gt;&lt;b&gt;TerminationState&lt;/b&gt;&lt;br&gt;&lt;/p&gt;&lt;hr size=&quot;1&quot;&gt;&lt;hr size=&quot;1&quot;&gt;&lt;p style=&quot;margin:0px;margin-left:4px;&quot;&gt;+ executeCommand(command : ScriptCommand) : void&lt;br&gt;&lt;/p&gt;" style="verticalAlign=top;align=left;overflow=fill;fontSize=12;fontFamily=Helvetica;html=1;whiteSpace=wrap;" parent="1" vertex="1">
          <mxGeometry x="730" y="460" width="310" height="60" as="geometry" />
        </mxCell>
        <mxCell id="k1PwsRZrjSJeXuvPs9rs-1" value="&lt;div&gt;«abstract»&lt;/div&gt;&lt;div&gt;&lt;b&gt;CommandState&lt;/b&gt;&lt;/div&gt;" style="html=1;whiteSpace=wrap;" vertex="1" parent="1">
          <mxGeometry x="505" y="260" width="110" height="50" as="geometry" />
        </mxCell>
        <mxCell id="k1PwsRZrjSJeXuvPs9rs-3" value="ScriptContext" style="html=1;whiteSpace=wrap;fontStyle=1" vertex="1" parent="1">
          <mxGeometry x="210" y="260" width="110" height="50" as="geometry" />
        </mxCell>
      </root>
    </mxGraphModel>
  </diagram>
  <diagram id="pcgMzaQeKZuRKibT-5xG" name="Page-3">
    <mxGraphModel dx="1362" dy="766" grid="1" gridSize="10" guides="1" tooltips="1" connect="1" arrows="1" fold="1" page="1" pageScale="1" pageWidth="850" pageHeight="1100" math="0" shadow="0">
      <root>
        <mxCell id="0" />
        <mxCell id="1" parent="0" />
        <mxCell id="2iCKSr2i0oMvZ04pUMbO-1" value="&lt;p style=&quot;margin:0px;margin-top:4px;text-align:center;&quot;&gt;&lt;b&gt;InteractiveTopper&lt;/b&gt;&lt;br&gt;&lt;/p&gt;&lt;hr size=&quot;1&quot;&gt;&lt;p style=&quot;margin:0px;margin-left:4px;&quot;&gt;- &lt;u&gt;LINE_PREFIX : String&lt;/u&gt;&lt;br&gt;&lt;/p&gt;&lt;p style=&quot;margin:0px;margin-left:4px;&quot;&gt;- config : TopperConfig&lt;br&gt;&lt;/p&gt;&lt;hr size=&quot;1&quot;&gt;&lt;p style=&quot;margin:0px;margin-left:4px;&quot;&gt;+ InteractiveTopper(config : TopperConfig)&lt;br&gt;+ mainLoop() : void&lt;/p&gt;&lt;p style=&quot;margin:0px;margin-left:4px;&quot;&gt;+ getConfig() : TopperConfig&lt;br&gt;&lt;/p&gt;&lt;p style=&quot;margin:0px;margin-left:4px;&quot;&gt;&lt;br&gt;&lt;/p&gt;" style="verticalAlign=top;align=left;overflow=fill;fontSize=12;fontFamily=Helvetica;html=1;whiteSpace=wrap;" parent="1" vertex="1">
          <mxGeometry x="80" y="200" width="240" height="130" as="geometry" />
        </mxCell>
        <mxCell id="2iCKSr2i0oMvZ04pUMbO-2" value="&lt;p style=&quot;margin:0px;margin-top:4px;text-align:center;&quot;&gt;&lt;i&gt;&amp;lt;&amp;lt;Interface&amp;gt;&amp;gt;&lt;/i&gt;&lt;/p&gt;&lt;p style=&quot;margin:0px;margin-top:4px;text-align:center;&quot;&gt;&lt;b&gt;TopperConfig&lt;br&gt;&lt;/b&gt;&lt;/p&gt;&lt;hr size=&quot;1&quot;&gt;&lt;p style=&quot;margin:0px;margin-left:4px;&quot;&gt;+ getGadgetLength() : int&lt;br&gt;&lt;/p&gt;" style="verticalAlign=top;align=left;overflow=fill;fontSize=12;fontFamily=Helvetica;html=1;whiteSpace=wrap;" parent="1" vertex="1">
          <mxGeometry x="430" y="200" width="190" height="140" as="geometry" />
        </mxCell>
        <mxCell id="oLMApaSVUybQZFkhmyAU-1" value="&lt;p style=&quot;margin:0px;margin-top:4px;text-align:center;&quot;&gt;&lt;b&gt;IOManager&lt;/b&gt;&lt;br&gt;&lt;/p&gt;&lt;hr size=&quot;1&quot;&gt;&lt;p style=&quot;margin:0px;margin-left:4px;&quot;&gt;- inputStream : InputStream&lt;/p&gt;&lt;p style=&quot;margin:0px;margin-left:4px;&quot;&gt;- outputStream : OutputStream&lt;/p&gt;&lt;p style=&quot;margin:0px;margin-left:4px;&quot;&gt;- errorStream : OutputStream&lt;br&gt;&lt;/p&gt;&lt;hr size=&quot;1&quot;&gt;&lt;p style=&quot;margin:0px;margin-left:4px;&quot;&gt;+ IOManager()&lt;/p&gt;&lt;p style=&quot;margin:0px;margin-left:4px;&quot;&gt;+ IOManager(input : InputStream, output : OutputStream, error : OutputStream)&lt;br&gt;&lt;/p&gt;&lt;p style=&quot;margin:0px;margin-left:4px;&quot;&gt;+ query(queryText : String) : String&lt;br&gt;&lt;/p&gt;&lt;div&gt;&amp;nbsp;+ output(text : String) : void&lt;/div&gt;&lt;div&gt;&amp;nbsp;+ error(text : String): void&lt;/div&gt;&lt;div&gt;&amp;nbsp;+ input(count : int) : byte[]&lt;/div&gt;&lt;div&gt;&amp;nbsp;+ inputLine() : String&lt;/div&gt;&lt;div&gt;&amp;nbsp;+ flushAll() : void&lt;/div&gt;&lt;div&gt;&amp;nbsp;+ close() : void&lt;/div&gt;&lt;div&gt;&amp;nbsp;+ setInputStream(inputStream : InputStream) : void&lt;/div&gt;&lt;div&gt;&amp;nbsp;+ setOutputStream(outputStream : OutputStream) : void&lt;/div&gt;&lt;div&gt;&amp;nbsp;+ setErrorStream(errorStream : OutputStream) : void&lt;/div&gt;&lt;div&gt;&amp;nbsp;+ getInputStream() : InputStream&lt;/div&gt;&lt;div&gt;&amp;nbsp;+ getOutputStream() : OutputStream()&lt;/div&gt;&lt;div&gt;&amp;nbsp;+ getErrorStream() : OutputStream&lt;br&gt;&lt;/div&gt;" style="verticalAlign=top;align=left;overflow=fill;fontSize=12;fontFamily=Helvetica;html=1;whiteSpace=wrap;" parent="1" vertex="1">
          <mxGeometry x="130" y="395" width="430" height="310" as="geometry" />
        </mxCell>
      </root>
    </mxGraphModel>
  </diagram>
</mxfile>
